<svg width="50" height="24" viewBox="0 0 50 24" fill="none" xmlns="http://www.w3.org/2000/svg">
<rect width="50" height="24" rx="4" fill="white" fill-opacity="0.2"/>
<rect x="0.2" y="0.2" width="49.6" height="23.6" rx="3.8" stroke="white" stroke-opacity="0.7" stroke-width="0.4"/>
<path d="M15.9156 17.1661C16.0246 17.1661 16.1291 17.21 16.2062 17.2882C16.2832 17.3664 16.3265 17.4724 16.3265 17.583C16.3265 17.6936 16.2832 17.7997 16.2062 17.8779C16.1291 17.9561 16.0246 18 15.9156 18H5.513C5.40401 18 5.29948 17.9561 5.22242 17.8779C5.14535 17.7997 5.10205 17.6936 5.10205 17.583C5.10205 17.4724 5.14535 17.3664 5.22242 17.2882C5.29948 17.21 5.40401 17.1661 5.513 17.1661H15.9156ZM15.9156 9.60453L9.39557 16.2201L6.85013 16.4815L7.10774 13.905L12.7752 8.15446L13.6278 7.28939C14.008 6.90354 14.6766 6.90354 15.0569 7.28939L15.9095 8.15446C16.0996 8.34738 16.2039 8.60877 16.2039 8.8826C16.21 9.15021 16.1057 9.4116 15.9156 9.60453ZM7.77017 15.5479L9.01529 15.4173L14.1859 10.1709L13.0635 9.03197L7.89284 14.2784L7.77017 15.5479ZM14.3454 7.82461C14.2963 7.82461 14.2473 7.84328 14.2104 7.88062L13.6523 8.44696L14.7747 9.58586L15.3329 9.01952C15.4065 8.94484 15.4065 8.82037 15.3329 8.74569L14.4803 7.88062C14.4435 7.84328 14.3945 7.82461 14.3454 7.82461Z" fill="white"/>
</svg>
