<svg width="40" height="40" viewBox="0 0 40 40" fill="none" xmlns="http://www.w3.org/2000/svg">
<circle cx="20" cy="20" r="20" fill="url(#paint0_linear_1186_14569)"/>
<circle cx="20" cy="19.7899" r="11.5789" fill="white"/>
<circle cx="20" cy="16.8412" r="6.31579" fill="url(#paint1_linear_1186_14569)"/>
<path d="M21.4285 19.9765C20.8676 20.1911 20.3396 20.2961 19.8447 20.2916C19.3517 20.2837 18.9282 20.1762 18.5743 19.9691C18.2195 19.7596 17.9699 19.4621 17.8255 19.0766C17.7076 18.7765 17.6708 18.472 17.7149 18.1631C17.7581 17.8518 17.8695 17.5636 18.049 17.2985C18.2303 17.0299 18.4646 16.8142 18.7519 16.6512L18.7359 16.6095C18.302 16.6746 17.9103 16.6054 17.5609 16.4019C17.2106 16.196 16.9646 15.9038 16.8229 15.5252C16.682 15.1649 16.6659 14.8006 16.7748 14.4324C16.8836 14.0642 17.0972 13.7249 17.4155 13.4147C17.7366 13.1034 18.1421 12.854 18.6323 12.6665C19.1169 12.4811 19.5813 12.3977 20.0255 12.4163C20.4696 12.4349 20.8551 12.545 21.1819 12.7466C21.5114 12.9471 21.7466 13.2276 21.8876 13.5879C22.0293 13.9664 22.037 14.3498 21.9108 14.7379C21.7864 15.1227 21.545 15.4341 21.1866 15.6721L21.2025 15.7138C21.5225 15.6445 21.8369 15.6504 22.1457 15.7314C22.4536 15.8101 22.7289 15.9504 22.9715 16.1523C23.2133 16.3519 23.3932 16.6017 23.5111 16.9018C23.6554 17.2873 23.664 17.677 23.5368 18.0708C23.4115 18.4612 23.1679 18.8239 22.8059 19.1589C22.4458 19.4904 21.9867 19.763 21.4285 19.9765ZM21.1361 19.2122C21.5146 19.0674 21.8214 18.8903 22.0566 18.6808C22.2917 18.4714 22.4478 18.2431 22.525 17.9959C22.6021 17.7486 22.5932 17.4971 22.4985 17.2413C22.393 16.9737 22.2205 16.7675 21.981 16.6228C21.7415 16.4781 21.4603 16.3998 21.1373 16.3879C20.8171 16.375 20.48 16.4362 20.1261 16.5716C19.7694 16.7081 19.4734 16.889 19.2381 17.1144C19.0055 17.3388 18.8484 17.5848 18.7666 17.8524C18.6875 18.1189 18.7007 18.386 18.8062 18.6537C18.9009 18.9095 19.0581 19.1043 19.2778 19.238C19.5003 19.3706 19.7703 19.4359 20.0879 19.4339C20.4055 19.4319 20.7549 19.358 21.1361 19.2122ZM19.8443 15.8351C20.1438 15.7205 20.3898 15.568 20.5823 15.3775C20.7775 15.1861 20.9068 14.9733 20.9702 14.7393C21.0337 14.5053 21.0198 14.265 20.9286 14.0184C20.8337 13.7786 20.6868 13.5945 20.4879 13.4661C20.2881 13.3354 20.0539 13.2657 19.7852 13.257C19.5156 13.2459 19.227 13.2992 18.9193 13.4169C18.6062 13.5367 18.3516 13.6912 18.1555 13.8804C17.9585 14.0672 17.8306 14.2755 17.7718 14.5051C17.712 14.7324 17.7296 14.966 17.8244 15.2058C17.9156 15.4524 18.0616 15.6421 18.2623 15.7751C18.4657 15.9071 18.704 15.9792 18.9771 15.9916C19.2503 16.0039 19.5393 15.9517 19.8443 15.8351Z" fill="white"/>
<defs>
<linearGradient id="paint0_linear_1186_14569" x1="6.8" y1="5.2" x2="20" y2="40" gradientUnits="userSpaceOnUse">
<stop stop-color="#FF6254"/>
<stop offset="1" stop-color="#FA1A0D"/>
</linearGradient>
<linearGradient id="paint1_linear_1186_14569" x1="20" y1="10.5254" x2="20" y2="23.157" gradientUnits="userSpaceOnUse">
<stop stop-color="#FF6154"/>
<stop offset="1" stop-color="#FB2013"/>
</linearGradient>
</defs>
</svg>
