<svg width="24" height="24" viewBox="0 0 24 24" fill="none" xmlns="http://www.w3.org/2000/svg">
<path fill-rule="evenodd" clip-rule="evenodd" d="M20.059 6.42597V9.19789L12.4108 16.4962C12.1071 16.7862 12.1074 17.258 12.4108 17.5478C12.558 17.6882 12.7537 17.7656 12.9621 17.7656C13.1699 17.7656 13.3656 17.6882 13.5131 17.5478L20.059 11.3013V18.574C20.059 19.9118 18.9186 21 17.5167 21H6.54228C5.14039 21 4 19.9118 4 18.574V6.42597C4 5.08822 5.14039 4 6.54228 4H17.5167C18.9186 4 20.059 5.08822 20.059 6.42597ZM15.2108 8.84038H7.89771C7.64256 8.84038 7.43589 9.03759 7.43589 9.28107C7.43589 9.52455 7.64256 9.72175 7.89771 9.72175H15.2108C15.466 9.72175 15.6726 9.52455 15.6726 9.28107C15.6726 9.03759 15.466 8.84038 15.2108 8.84038ZM12.7981 12.1141H7.89771C7.64256 12.1141 7.43589 12.3113 7.43589 12.5548C7.43589 12.7983 7.64256 12.9955 7.89771 12.9955H12.7981C13.053 12.9955 13.2599 12.7983 13.2599 12.5548C13.2599 12.3113 13.0533 12.1141 12.7981 12.1141ZM7.89771 16.269H11.8361C12.0913 16.269 12.2979 16.0718 12.2979 15.8283C12.2979 15.5848 12.0913 15.3876 11.8361 15.3876H7.89771C7.64256 15.3876 7.43589 15.5848 7.43589 15.8283C7.43589 16.0718 7.64256 16.269 7.89771 16.269ZM12.6363 17.3351C12.7263 17.4213 12.8444 17.4642 12.9627 17.4642C13.0234 17.4643 13.0835 17.4529 13.1396 17.4307C13.1956 17.4086 13.2466 17.376 13.2895 17.3351L21.865 9.15182C22.0454 8.97967 22.0454 8.70066 21.865 8.52852C21.6846 8.35638 21.3923 8.35638 21.2119 8.52852L12.6363 16.7118C12.4559 16.8839 12.4559 17.1629 12.6363 17.3351Z" fill="#C2C2C2"/>
</svg>
