<svg width="16" height="16" viewBox="0 0 16 16" fill="none" xmlns="http://www.w3.org/2000/svg">
<path d="M12.013 4.99974H11.029V3.47574C11.029 1.56574 9.454 0.0107422 7.518 0.0107422C5.583 0.0107422 4.008 1.56574 4.008 3.47574V4.99974H3.013C1.909 4.99974 1.013 5.89574 1.013 6.99974V12.9997C1.013 14.1037 1.909 14.9997 3.013 14.9997H12.013C13.117 14.9997 14.013 14.1037 14.013 12.9997V6.99974C14.013 5.89574 13.117 4.99974 12.013 4.99974ZM8.013 9.89874V11.4997C8.013 11.7757 7.789 11.9997 7.513 11.9997C7.237 11.9997 7.013 11.7757 7.013 11.4997V9.89874C6.433 9.69074 6.013 9.15074 6.013 8.49974C6.013 7.73974 6.586 7.13874 7.319 7.03874C7.378 7.01374 7.443 6.99974 7.513 6.99974C8.341 6.99974 9.013 7.67174 9.013 8.49974C9.013 9.15074 8.593 9.69074 8.013 9.89874ZM10.025 4.99974H5.011V3.47574C5.011 2.11174 6.136 1.00074 7.518 1.00074C8.901 1.00074 10.026 2.11074 10.026 3.47574V4.99974H10.025Z" fill="#F04B49"/>
</svg>
