<svg width="24" height="24" viewBox="0 0 24 24" fill="none" xmlns="http://www.w3.org/2000/svg">
<path fill-rule="evenodd" clip-rule="evenodd" d="M15.1509 3.83366H19.2661C19.7564 3.83351 20.2421 3.92999 20.6951 4.11758C21.1482 4.30518 21.5599 4.58022 21.9067 4.92697C22.2534 5.27373 22.5285 5.68542 22.7161 6.13851C22.9037 6.5916 23.0001 7.07721 23 7.5676V18.0854C22.9985 19.0753 22.6046 20.0242 21.9047 20.7241C21.2048 21.424 20.2559 21.8179 19.2661 21.8194H4.73394C3.7441 21.8179 2.79521 21.424 2.09529 20.7241C1.39536 20.0242 1.00148 19.0753 1 18.0854V7.5676C1.00148 6.57775 1.39536 5.62887 2.09529 4.92894C2.79521 4.22901 3.7441 3.83514 4.73394 3.83366H8.52396L7.22324 1.53498C7.15983 1.40639 7.14809 1.25839 7.19044 1.12141C7.2328 0.984426 7.32602 0.868877 7.45095 0.798516C7.57587 0.728155 7.72301 0.708329 7.8621 0.743115C8.0012 0.777901 8.12168 0.864655 8.19878 0.985541L9.81346 3.83366H13.8614L15.476 0.985541C15.5098 0.917188 15.557 0.856425 15.615 0.806964C15.673 0.757502 15.7405 0.720382 15.8133 0.69787C15.8861 0.675357 15.9627 0.667926 16.0385 0.67603C16.1143 0.684134 16.1876 0.707603 16.254 0.745003C16.3204 0.782403 16.3785 0.832949 16.4247 0.893552C16.4709 0.954156 16.5043 1.02354 16.5228 1.09748C16.5413 1.17141 16.5445 1.24834 16.5323 1.32357C16.52 1.39879 16.4926 1.47072 16.4516 1.53498L15.1509 3.83366ZM10.4974 16.4259L15.8236 13.3199C15.9118 13.2683 15.9851 13.1947 16.0362 13.1062C16.0873 13.0177 16.1145 12.9175 16.1152 12.8153C16.1083 12.716 16.0784 12.6198 16.0278 12.5341C15.9772 12.4484 15.9073 12.3758 15.8236 12.3219L10.4974 9.21591C10.4083 9.16622 10.3079 9.14014 10.2059 9.14014C10.1038 9.14014 10.0035 9.16622 9.91436 9.21591C9.82615 9.26748 9.75289 9.34112 9.70177 9.42959C9.65065 9.51806 9.62344 9.61832 9.62282 9.72049V15.9213C9.62208 16.0238 9.64871 16.1245 9.69996 16.2133C9.75121 16.302 9.82523 16.3754 9.91436 16.4259C10.0029 16.4773 10.1035 16.5044 10.2059 16.5044C10.3083 16.5044 10.4089 16.4773 10.4974 16.4259Z" fill="#939393"/>
</svg>
