<svg width="26" height="26" viewBox="0 0 26 26" fill="none" xmlns="http://www.w3.org/2000/svg">
<path d="M10.4609 18.8906C9.9582 18.8906 9.54688 18.4793 9.54688 17.9766V12.6953C9.54688 12.1926 9.9582 11.7812 10.4609 11.7812C10.9637 11.7812 11.375 12.1926 11.375 12.6953V17.9766C11.375 18.4793 10.9637 18.8906 10.4609 18.8906ZM15.5391 18.8906C15.0363 18.8906 14.625 18.4793 14.625 17.9766V12.6953C14.625 12.1926 15.0363 11.7812 15.5391 11.7812C16.0418 11.7812 16.4531 12.1926 16.4531 12.6953V17.9766C16.4531 18.4793 16.0418 18.8906 15.5391 18.8906Z" fill="#333333"/>
<path d="M23.4559 6.29688H18.6875V4.21484C18.6875 2.78789 17.5246 1.625 16.0977 1.625H9.90234C8.47539 1.625 7.3125 2.78789 7.3125 4.21484V6.29688H2.54414C2.03887 6.29688 1.625 6.7082 1.625 7.21094C1.625 7.71367 2.03887 8.125 2.54414 8.125H4.875V21.2773C4.875 21.6938 4.95625 22.1 5.11875 22.4834C5.27363 22.8516 5.49707 23.1842 5.78145 23.4686C6.06582 23.7529 6.3959 23.9764 6.7666 24.1313C7.15 24.2938 7.55625 24.375 7.97266 24.375H18.0273C18.4438 24.375 18.85 24.2938 19.2334 24.1313C19.6016 23.9764 19.9342 23.7529 20.2186 23.4686C20.5029 23.1842 20.7264 22.8541 20.8813 22.4834C21.0438 22.1 21.125 21.6938 21.125 21.2773V8.125H23.4559C23.9611 8.125 24.375 7.71367 24.375 7.21094C24.375 6.7082 23.9611 6.29688 23.4559 6.29688ZM9.14062 4.21484C9.14062 3.79336 9.48086 3.45312 9.90234 3.45312H16.0977C16.5191 3.45312 16.8594 3.79336 16.8594 4.21484V6.29688H9.14062V4.21484ZM19.2969 21.2773C19.2969 21.9781 18.7281 22.5469 18.0273 22.5469H7.97266C7.27187 22.5469 6.70312 21.9781 6.70312 21.2773V8.125H19.2969V21.2773Z" fill="#333333"/>
</svg>
