<svg width="70" height="30" viewBox="0 0 70 30" fill="none" xmlns="http://www.w3.org/2000/svg">
<rect x="0.4" y="0.4" width="69.2" height="29.2" rx="3.6" stroke="#F04B49" stroke-width="0.8"/>
<path d="M69.5 13L46.5 29.5H47H58.5H66L67.5 29L69 28L69.5 27V23.5V13Z" fill="#F04B49"/>
<path d="M62.2488 27.0756C62.1307 27.0756 62.0127 27.035 61.9174 26.9524L58.1761 23.7266C57.9641 23.5437 57.94 23.2225 58.1228 23.0105C58.3056 22.7985 58.6268 22.7744 58.8388 22.9572L62.2234 25.8759L67.9972 20.1477C68.1966 19.9497 68.5177 19.951 68.7158 20.1503C68.9138 20.3496 68.9126 20.6708 68.7133 20.8688L62.6068 26.9283C62.5078 27.0261 62.3783 27.0756 62.2488 27.0756Z" fill="white"/>
</svg>
