<svg width="20" height="20" viewBox="0 0 20 20" fill="none" xmlns="http://www.w3.org/2000/svg">
<g clip-path="url(#clip0_1252_12287)">
<path d="M18.3243 0H1.67565C0.753544 0 0.00341797 0.750171 0.00341797 1.67227C0.00341797 2.112 0.173155 2.52379 0.482892 2.83893C0.492127 2.85607 0.503921 2.87195 0.517932 2.88601L6.36929 8.73783V11.7712L6.36925 12.2957C6.36925 12.2976 6.36925 12.2995 6.36925 12.3014C6.36925 12.6839 6.67933 12.994 7.06184 12.994C7.44436 12.994 7.75444 12.6839 7.75444 12.3014C7.75444 12.2995 7.7543 12.2976 7.7543 12.2957L7.75444 12.2737C7.75453 12.2713 7.7548 12.2689 7.7548 12.2665V8.24805C7.7548 8.19422 7.73341 8.14258 7.69533 8.1045L1.52698 1.93655C1.51636 1.91968 1.50305 1.90423 1.4874 1.89081C1.44767 1.8568 1.38097 1.7832 1.38097 1.67227C1.38097 1.50978 1.51315 1.3776 1.67567 1.3776H18.3243C18.4865 1.3776 18.6185 1.50978 18.6185 1.67227C18.6185 1.78359 18.5521 1.85698 18.5125 1.89083C18.4965 1.90457 18.483 1.92043 18.4722 1.93771L12.3051 8.10407C12.2669 8.14217 12.2455 8.19385 12.2456 8.2477C12.2456 8.30277 12.2481 13.8042 12.2481 18.3274C12.2481 18.4896 12.115 18.6216 11.9513 18.6216C11.8389 18.6216 11.7644 18.5547 11.73 18.5148C11.716 18.4986 11.6998 18.4851 11.6822 18.4743L10.0932 16.908C10.0137 16.8297 9.88602 16.8301 9.80719 16.909L9.11281 17.6028C9.07455 17.6411 9.05313 17.693 9.05329 17.7471C9.05348 17.8012 9.07526 17.853 9.11377 17.891L10.7324 19.4868C10.7466 19.5008 10.7626 19.5126 10.78 19.5217C11.0967 19.8307 11.5101 20 11.9513 20C12.8775 20 13.631 19.2498 13.631 18.3277V8.73783L19.4823 2.88599C19.4966 2.8717 19.5085 2.85552 19.5179 2.83803C19.8271 2.52304 19.9965 2.11157 19.9965 1.67227C19.9965 0.750194 19.2464 0 18.3243 0Z" fill="white"/>
<path d="M7.06188 14.0039C6.62403 14.0039 6.26782 14.3601 6.26782 14.798C6.26782 15.2359 6.62403 15.5921 7.06188 15.5921C7.49973 15.5921 7.85594 15.2359 7.85594 14.798C7.85594 14.3601 7.49973 14.0039 7.06188 14.0039Z" fill="white"/>
</g>
<defs>
<clipPath id="clip0_1252_12287">
<rect width="20" height="20" fill="white"/>
</clipPath>
</defs>
</svg>
