<svg width="24" height="25" viewBox="0 0 24 25" fill="none" xmlns="http://www.w3.org/2000/svg">
<path d="M20.04 7.02868L14.28 2.99868C12.71 1.89868 10.3 1.95868 8.78999 3.12868L3.77999 7.03868C2.77999 7.81868 1.98999 9.41868 1.98999 10.6787V17.5787C1.98999 20.1287 4.05999 22.2087 6.60999 22.2087H17.39C19.94 22.2087 22.01 20.1387 22.01 17.5887V10.8087C22.01 9.45868 21.14 7.79868 20.04 7.02868ZM12.75 18.2087C12.75 18.6187 12.41 18.9587 12 18.9587C11.59 18.9587 11.25 18.6187 11.25 18.2087V15.2087C11.25 14.7987 11.59 14.4587 12 14.4587C12.41 14.4587 12.75 14.7987 12.75 15.2087V18.2087Z" fill="#939393"/>
</svg>
