<svg width="32" height="32" viewBox="0 0 32 32" fill="none" xmlns="http://www.w3.org/2000/svg">
<rect width="32" height="32" rx="12" fill="url(#paint0_linear_1_17632)"/>
<path d="M19.7467 15.1667C19.46 15.1667 19.2334 14.9334 19.2334 14.6534C19.2334 14.4067 18.9867 13.8934 18.5734 13.4467C18.1667 13.0134 17.72 12.7601 17.3467 12.7601C17.06 12.7601 16.8334 12.5267 16.8334 12.2467C16.8334 11.9667 17.0667 11.7334 17.3467 11.7334C18.0134 11.7334 18.7134 12.0934 19.3267 12.7401C19.9 13.3467 20.2667 14.1001 20.2667 14.6467C20.2667 14.9334 20.0334 15.1667 19.7467 15.1667Z" fill="white"/>
<path d="M22.1534 15.1666C21.8668 15.1666 21.6401 14.9333 21.6401 14.6533C21.6401 12.2866 19.7134 10.3666 17.3534 10.3666C17.0668 10.3666 16.8401 10.1333 16.8401 9.85325C16.8401 9.57325 17.0668 9.33325 17.3468 9.33325C20.2801 9.33325 22.6668 11.7199 22.6668 14.6533C22.6668 14.9333 22.4334 15.1666 22.1534 15.1666Z" fill="white"/>
<path d="M15.3667 17.9666L14.1334 19.1999C13.8734 19.4599 13.46 19.4599 13.1934 19.2066C13.12 19.1333 13.0467 19.0666 12.9734 18.9933C12.2867 18.2999 11.6667 17.5733 11.1134 16.8133C10.5667 16.0533 10.1267 15.2933 9.80671 14.5399C9.49337 13.7799 9.33337 13.0533 9.33337 12.3599C9.33337 11.9066 9.41337 11.4733 9.57337 11.0733C9.73337 10.6666 9.98671 10.2933 10.34 9.95992C10.7667 9.53992 11.2334 9.33325 11.7267 9.33325C11.9134 9.33325 12.1 9.37325 12.2667 9.45325C12.44 9.53325 12.5934 9.65325 12.7134 9.82659L14.26 12.0066C14.38 12.1733 14.4667 12.3266 14.5267 12.4733C14.5867 12.6133 14.62 12.7533 14.62 12.8799C14.62 13.0399 14.5734 13.1999 14.48 13.3533C14.3934 13.5066 14.2667 13.6666 14.1067 13.8266L13.6 14.3533C13.5267 14.4266 13.4934 14.5133 13.4934 14.6199C13.4934 14.6733 13.5 14.7199 13.5134 14.7733C13.5334 14.8266 13.5534 14.8666 13.5667 14.9066C13.6867 15.1266 13.8934 15.4133 14.1867 15.7599C14.4867 16.1066 14.8067 16.4599 15.1534 16.8133C15.22 16.8799 15.2934 16.9466 15.36 17.0133C15.6267 17.2733 15.6334 17.6999 15.3667 17.9666Z" fill="white"/>
<path d="M22.6468 20.2201C22.6468 20.4068 22.6134 20.6001 22.5468 20.7868C22.5268 20.8401 22.5068 20.8934 22.4801 20.9468C22.3668 21.1868 22.2201 21.4134 22.0268 21.6268C21.7001 21.9868 21.3401 22.2468 20.9334 22.4134C20.9268 22.4134 20.9201 22.4201 20.9134 22.4201C20.5201 22.5801 20.0934 22.6668 19.6334 22.6668C18.9534 22.6668 18.2268 22.5068 17.4601 22.1801C16.6934 21.8534 15.9268 21.4134 15.1668 20.8601C14.9068 20.6668 14.6468 20.4734 14.4001 20.2668L16.5801 18.0868C16.7668 18.2268 16.9334 18.3334 17.0734 18.4068C17.1068 18.4201 17.1468 18.4401 17.1934 18.4601C17.2468 18.4801 17.3001 18.4868 17.3601 18.4868C17.4734 18.4868 17.5601 18.4468 17.6334 18.3734L18.1401 17.8734C18.3068 17.7068 18.4668 17.5801 18.6201 17.5001C18.7734 17.4068 18.9268 17.3601 19.0934 17.3601C19.2201 17.3601 19.3534 17.3868 19.5001 17.4468C19.6468 17.5068 19.8001 17.5934 19.9668 17.7068L22.1734 19.2734C22.3468 19.3934 22.4668 19.5334 22.5401 19.7001C22.6068 19.8668 22.6468 20.0334 22.6468 20.2201Z" fill="white"/>
<defs>
<linearGradient id="paint0_linear_1_17632" x1="-4.44251" y1="-1.904" x2="29.5105" y2="33.4769" gradientUnits="userSpaceOnUse">
<stop offset="0.118283" stop-color="#E76668"/>
<stop offset="1" stop-color="#BF2E27"/>
</linearGradient>
</defs>
</svg>
