<svg width="32" height="32" viewBox="0 0 32 32" fill="none" xmlns="http://www.w3.org/2000/svg">
<rect width="32" height="32" rx="12" fill="url(#paint0_linear_1_17642)"/>
<path d="M22.8152 21.415C23.8924 20.6188 24.595 19.4478 24.595 18.1363C24.595 15.7475 22.2531 13.8271 19.3959 13.8271C16.5388 13.8271 14.2437 15.7475 14.2437 18.1363C14.2437 20.5251 16.5388 22.4455 19.3959 22.4455C20.0048 22.4455 20.5669 22.3518 21.0821 22.2113C21.2695 22.1645 21.4568 22.2113 21.5037 22.2581L22.6746 22.9139C22.8152 23.0076 22.9557 22.9139 22.9088 22.7265L22.6278 21.6961C22.6278 21.5556 22.7215 21.4619 22.8152 21.415ZM17.6629 17.4337C17.5589 17.4613 17.4499 17.4646 17.3444 17.4434C17.239 17.4221 17.1398 17.377 17.0545 17.3114C16.9692 17.2457 16.9002 17.1614 16.8526 17.0649C16.8051 16.9683 16.7804 16.8622 16.7804 16.7546C16.7804 16.647 16.8051 16.5408 16.8526 16.4443C16.9002 16.3477 16.9692 16.2634 17.0545 16.1978C17.1398 16.1322 17.239 16.087 17.3444 16.0658C17.4499 16.0446 17.5589 16.0479 17.6629 16.0754C17.8127 16.1151 17.9452 16.2032 18.0398 16.3261C18.1343 16.4489 18.1856 16.5996 18.1856 16.7546C18.1856 16.9096 18.1343 17.0602 18.0398 17.1831C17.9452 17.3059 17.8127 17.394 17.6629 17.4337ZM21.129 17.4337C21.0249 17.4613 20.916 17.4646 20.8105 17.4434C20.705 17.4221 20.6058 17.377 20.5206 17.3114C20.4353 17.2457 20.3662 17.1614 20.3187 17.0649C20.2712 16.9683 20.2465 16.8622 20.2465 16.7546C20.2465 16.647 20.2712 16.5408 20.3187 16.4443C20.3662 16.3477 20.4353 16.2634 20.5206 16.1978C20.6058 16.1322 20.705 16.087 20.8105 16.0658C20.916 16.0446 21.0249 16.0479 21.129 16.0754C21.2788 16.1151 21.4113 16.2032 21.5059 16.3261C21.6004 16.4489 21.6517 16.5996 21.6517 16.7546C21.6517 16.9096 21.6004 17.0602 21.5059 17.1831C21.4113 17.3059 21.2788 17.394 21.129 17.4337Z" fill="white"/>
<path d="M13.5879 9.04956C10.1687 9.04956 7.40521 11.3915 7.40521 14.2487C7.40521 15.7944 8.20147 17.1995 9.51296 18.1363C9.65348 18.23 9.74715 18.3705 9.70031 18.6047L9.37244 19.7288C9.3256 19.963 9.51296 20.0567 9.65348 20.0098L11.0586 19.2136C11.1992 19.1199 11.3865 19.0731 11.5739 19.1199C12.7917 19.4946 13.8221 19.4009 13.9626 19.4009C12.8385 15.4665 16.7261 13.2182 19.7238 13.4056C19.2554 10.97 16.6793 9.04956 13.5879 9.04956ZM11.527 13.4056C11.4031 13.4354 11.274 13.4368 11.1494 13.4095C11.0248 13.3822 10.9081 13.3271 10.8079 13.2482C10.7078 13.1693 10.6268 13.0687 10.5712 12.9539C10.5155 12.8392 10.4866 12.7134 10.4866 12.5859C10.4866 12.4584 10.5155 12.3325 10.5712 12.2178C10.6268 12.1031 10.7078 12.0025 10.8079 11.9236C10.9081 11.8447 11.0248 11.7896 11.1494 11.7623C11.274 11.735 11.4031 11.7364 11.527 11.7662C11.7111 11.8105 11.8748 11.9155 11.992 12.0641C12.1091 12.2128 12.1728 12.3966 12.1728 12.5859C12.1728 12.7752 12.1091 12.959 11.992 13.1076C11.8748 13.2563 11.7111 13.3613 11.527 13.4056ZM15.6957 13.4056C15.5717 13.4354 15.4426 13.4368 15.3181 13.4095C15.1935 13.3822 15.0768 13.3271 14.9766 13.2482C14.8764 13.1693 14.7955 13.0687 14.7398 12.9539C14.6842 12.8392 14.6552 12.7134 14.6552 12.5859C14.6552 12.4584 14.6842 12.3325 14.7398 12.2178C14.7955 12.1031 14.8764 12.0025 14.9766 11.9236C15.0768 11.8447 15.1935 11.7896 15.3181 11.7623C15.4426 11.735 15.5717 11.7364 15.6957 11.7662C15.8797 11.8105 16.0435 11.9155 16.1606 12.0641C16.2778 12.2128 16.3414 12.3966 16.3414 12.5859C16.3414 12.7752 16.2778 12.959 16.1606 13.1076C16.0435 13.2563 15.8797 13.3613 15.6957 13.4056Z" fill="white"/>
<defs>
<linearGradient id="paint0_linear_1_17642" x1="0" y1="0" x2="27.0448" y2="32" gradientUnits="userSpaceOnUse">
<stop stop-color="#8FFF94"/>
<stop offset="1" stop-color="#00C70A"/>
</linearGradient>
</defs>
</svg>
