<svg width="24" height="24" viewBox="0 0 24 24" fill="none" xmlns="http://www.w3.org/2000/svg">
<path d="M10.7414 13.2797C10.3992 13.2539 10.0383 13.3477 9.69141 13.4859C9.52266 13.043 9.37265 12.5836 9.24141 12.1195C9.09609 11.5969 8.97891 11.0695 8.89219 10.5445C9.41953 10.4016 9.95391 10.2023 10.3031 9.85312C10.9992 9.15703 11.4867 8.025 11.6391 6.74766C11.7727 5.62734 11.6484 4.57266 11.2805 3.69844C10.8797 2.74922 10.2164 2.09531 9.40781 1.85859L9.3375 1.8375C9.28828 1.82344 9.26016 1.81406 9.18515 1.79297C9.16641 1.78828 9.15 1.78359 9.13125 1.77891C8.21719 1.58672 7.42969 1.58672 6.72187 1.77891C5.9789 1.98047 5.31094 2.37422 4.73437 2.95078L4.725 2.96016C3.67031 4.01484 2.98125 5.62266 2.73047 7.60781C2.48906 9.52031 2.67422 11.6484 3.26016 13.7625C4.0125 16.4672 5.32031 18.832 6.94453 20.4188C7.76953 21.225 8.64375 21.8016 9.54141 22.132C10.1156 22.343 10.6875 22.4484 11.2453 22.4484C11.6367 22.4484 12.0234 22.3969 12.4031 22.2938C13.1977 22.0758 13.9078 21.6398 14.5125 20.9977C14.5641 20.9578 14.6133 20.9133 14.6602 20.8688C14.6648 20.8641 14.693 20.8383 14.6953 20.8336C15.8672 19.6617 15.6023 17.3742 14.0695 15.3937C13.0945 14.1375 11.8828 13.3664 10.7414 13.2797ZM13.5703 19.7062L13.5539 19.7227C13.5398 19.7367 13.5234 19.7484 13.5047 19.7625C13.4625 19.793 13.4227 19.8305 13.3852 19.868C12.975 20.3156 12.5039 20.6133 11.9812 20.7562C10.7648 21.0891 9.37031 20.5641 8.05547 19.2797C6.62812 17.8852 5.47031 15.7758 4.79297 13.3359C4.26562 11.4258 4.09687 9.51328 4.3125 7.80703C4.51406 6.20625 5.05781 4.88906 5.84297 4.09688C5.84766 4.09219 5.85234 4.0875 5.85937 4.08281C6.23906 3.70547 6.67031 3.45 7.14141 3.32109C7.59375 3.19687 8.12812 3.20391 8.775 3.3375C8.82422 3.35156 8.85 3.35859 8.8875 3.37031L8.96016 3.39141C9.66094 3.59766 10.2633 4.83984 10.057 6.5625C9.94922 7.47656 9.61875 8.2875 9.17812 8.72812C9.17578 8.73047 9.09375 8.80547 8.79609 8.91094C8.57344 8.98828 8.32969 9.04688 8.15156 9.09141C7.87031 9.15937 7.68515 9.20391 7.50937 9.37969C7.3125 9.57656 7.21406 9.84141 7.23047 10.1461C7.23047 10.1555 7.23047 10.1672 7.23281 10.1789C7.23281 10.2 7.23516 10.2188 7.2375 10.2398C7.33594 11.0086 7.49531 11.7844 7.70625 12.5508C7.90078 13.2539 8.14219 13.943 8.41875 14.5992C8.43984 14.6508 8.46797 14.7 8.49844 14.7445C8.73516 15.082 9.00703 15.2695 9.30937 15.3023C9.55078 15.3281 9.71484 15.2437 9.84609 15.1758C10.3828 14.8992 10.575 14.8758 10.6219 14.8758C11.1492 14.918 11.9977 15.3328 12.8062 16.3781C13.6711 17.4867 14.182 19.0898 13.5703 19.7062ZM21.3305 10.1156C21.0328 8.49141 20.1211 7.08047 18.7617 6.14062C18.3984 5.88984 17.9039 5.98125 17.6531 6.34453C17.4023 6.70781 17.4937 7.20234 17.857 7.45312C18.8648 8.14922 19.5445 9.19687 19.7648 10.4039C19.9852 11.6086 19.725 12.8297 19.0266 13.8375C18.7758 14.2008 18.8672 14.6953 19.2305 14.9461C19.3687 15.0422 19.5258 15.0867 19.6828 15.0867C19.9359 15.0867 20.1844 14.9672 20.3391 14.7422C21.2766 13.3828 21.6281 11.7398 21.3305 10.1156Z" fill="white"/>
<path d="M14.7 9.14529C14.3367 8.89451 13.8422 8.98591 13.5914 9.34919C13.3406 9.71247 13.432 10.207 13.7953 10.4578C14.0133 10.6078 14.1586 10.8328 14.2055 11.0929C14.2523 11.3531 14.1961 11.6156 14.0461 11.8336C13.7953 12.1945 13.8867 12.6914 14.2477 12.9422C14.3859 13.0383 14.543 13.0828 14.7 13.0828C14.9531 13.0828 15.2016 12.9633 15.3562 12.7383C15.7477 12.1711 15.8953 11.4843 15.7711 10.8047C15.6469 10.1273 15.2672 9.53669 14.7 9.14529ZM16.8516 7.94529C16.4883 7.69451 15.9937 7.78591 15.743 8.14919C15.4922 8.51247 15.5836 9.00701 15.9469 9.25779C16.4602 9.61169 16.8047 10.1461 16.9172 10.7625C17.0297 11.3789 16.8961 12 16.5422 12.5133C16.2914 12.8765 16.3828 13.3711 16.7461 13.6218C16.8844 13.7179 17.0414 13.7625 17.1984 13.7625C17.4516 13.7625 17.7 13.6429 17.8547 13.4179C18.45 12.5554 18.675 11.5101 18.4852 10.4742C18.2953 9.43826 17.7164 8.5406 16.8516 7.94529Z" fill="white"/>
</svg>
